# xmcd
# Track frame offsets:
# 183
# 12855
# 29723
# 47973
# 59898
# 71498
# 82000
# 96713
# 110068
# 122513
# 134265
# 142895
# 154208
# 165745
#
# Disc length: 2370 seconds
# Revision: 0
# Processed by: cddbd v1.4PL0 Copyright (c) Steve Scherf et al.
# Submitted via: VisiTrax 2.9.5.181 - For more info visit www.synapsa.com
#
DISCID=d209400e
DTITLE=Various Artist - Country Gold
DYEAR=1989
DGENRE=Country
TTITLE0=Charlie Rich - The most beautiful girl in the world
TTITLE1=Johnny Cash - A boy name Sue
TTITLE2=Billy Swan - I can help
TTITLE3=Tennessee Ernie Ford - Shotgun Boogie
TTITLE4=Johnny Horton - Battle of New Orleans
TTITLE5=Jerry Reed - When you're hot you're hot
TTITLE6=Jeannie C. Riley - Harper Valley P.T.A.
TTITLE7=Hank Thompson - The wild side of life
TTITLE8=Eddie Arnold - Cattle call
TTITLE9=Ray Price - Crazy arms
TTITLE10=Jerry Lee Lewis - Great balls of fire
TTITLE11=Stonewall Jackson - Waterloo
TTITLE12=Marty Robbins - A white sports coat
TTITLE13=Jim Reeves - Mexican Joe
EXTD=
EXTT0=
EXTT1=
EXTT2=
EXTT3=
EXTT4=
EXTT5=
EXTT6=
EXTT7=
EXTT8=
EXTT9=
EXTT10=
EXTT11=
EXTT12=
EXTT13=
PLAYORDER=
